<?xml version="1.0" encoding="utf-8"?>
<!-- Generator: Adobe Illustrator 27.9.0, SVG Export Plug-In . SVG Version: 6.00 Build 0)  -->
<svg version="1.1" id="Layer_1" xmlns="http://www.w3.org/2000/svg" xmlns:xlink="http://www.w3.org/1999/xlink" x="0px" y="0px"
	 viewBox="0 0 512 512" style="enable-background:new 0 0 512 512;" xml:space="preserve">
<style type="text/css">
	.st0{fill-rule:evenodd;clip-rule:evenodd;fill:#0CB04A;}
	.st1{opacity:0.35;fill-rule:evenodd;clip-rule:evenodd;fill:#020403;enable-background:new    ;}
	.st2{fill-rule:evenodd;clip-rule:evenodd;fill:#FF3A2F;}
	.st3{fill-rule:evenodd;clip-rule:evenodd;fill:#142A3B;}
	.st4{fill-rule:evenodd;clip-rule:evenodd;fill:#912822;}
	.st5{fill-rule:evenodd;clip-rule:evenodd;fill:#EDEDED;}
</style>
<g id="group-93svg">
	<path id="path-1" class="st0" d="M339.94,356.43c-3.38,26.64-8.57,52.32-15.44,76.7l-4.93,30.22l85.01,23.8v-80.82L339.94,356.43z"
		/>
	<path id="path-2" class="st1" d="M355.24,451.46l4.93-30.22c3.8-13.49,7.04-27.41,9.79-41.63l-30.01-23.18
		c-3.38,26.64-8.57,52.32-15.44,76.7l-4.93,30.22l85.01,23.8v-21.88L355.24,451.46z"/>
	<path id="path-3" class="st0" d="M183.9,355.7l-76.58,50.63v80.82l93.04-23.8l-7.49-56.13C189.1,390.54,186.11,373.32,183.9,355.7z
		"/>
	<path id="path-4" class="st1" d="M192.87,407.22c-3.77-16.69-6.76-33.9-8.97-51.52l-20.03,13.24c1.54,8.92,3.26,17.73,5.22,26.39
		l7.49,56.13l-69.26,17.72v17.97l93.04-23.8L192.87,407.22z"/>
	<path id="path-5" class="st2" d="M167.55,296.66c0,58.61,8.83,114.14,24.62,163.81c21.74,68.41,117.87,68.41,139.61,0
		c15.79-49.67,24.62-105.2,24.62-163.81c0-119.63-36.79-226.43-94.43-296.73C204.34,70.23,167.55,177.03,167.55,296.66z"/>
	<path id="path-6" class="st3" d="M317.37,164.97H197.91c-4.71,0-8.53-3.55-8.53-8.26s3.82-8.26,8.53-8.26h119.46
		c4.71,0,8.53,3.55,8.53,8.26S322.08,164.97,317.37,164.97z"/>
	<path id="path-7" class="st1" d="M261.97,0.09v511.84c29.47,0,58.93-17.1,69.81-51.3c15.79-49.67,24.62-105.2,24.62-163.81
		C356.4,177.19,319.6,70.39,261.97,0.09z"/>
	<path id="path-8" class="st4" d="M320.95,265.45c0-20.45-16.57-37.02-37.02-37.02c-20.44,0-37.02,16.57-37.02,37.02
		c0,20.44,16.57,37.02,37.02,37.02C304.37,302.47,320.95,285.89,320.95,265.45z"/>
	<path id="path-9" class="st5" d="M297.17,253.56c0-20.44-16.58-37.02-37.02-37.02s-37.01,16.57-37.01,37.02
		c0,20.45,16.57,37.02,37.01,37.02S297.17,274,297.17,253.56z"/>
</g>
</svg>
